<mxfile host="Electron" modified="2023-09-23T08:57:22.114Z" agent="Mozilla/5.0 (Windows NT 10.0; Win64; x64) AppleWebKit/537.36 (KHTML, like Gecko) draw.io/21.7.5 Chrome/114.0.5735.289 Electron/25.8.1 Safari/537.36" etag="YyRsP8eCCZV8qJS6BlRs" version="21.7.5" type="device">
  <diagram name="第 1 页" id="1oMsVFiBbRYVfmmcZz7F">
    <mxGraphModel dx="1082" dy="1764" grid="1" gridSize="10" guides="1" tooltips="1" connect="1" arrows="1" fold="1" page="1" pageScale="1" pageWidth="827" pageHeight="1169" math="0" shadow="0">
      <root>
        <mxCell id="0" />
        <mxCell id="1" parent="0" />
        <mxCell id="hRdH6rzwgM6ZrKGUw40h-21" style="edgeStyle=orthogonalEdgeStyle;rounded=0;orthogonalLoop=1;jettySize=auto;html=1;entryX=0.5;entryY=0;entryDx=0;entryDy=0;" parent="1" source="hRdH6rzwgM6ZrKGUw40h-2" target="hRdH6rzwgM6ZrKGUw40h-5" edge="1">
          <mxGeometry relative="1" as="geometry" />
        </mxCell>
        <mxCell id="hRdH6rzwgM6ZrKGUw40h-22" style="edgeStyle=orthogonalEdgeStyle;rounded=0;orthogonalLoop=1;jettySize=auto;html=1;exitX=0.5;exitY=1;exitDx=0;exitDy=0;entryX=0.5;entryY=0;entryDx=0;entryDy=0;" parent="1" source="hRdH6rzwgM6ZrKGUw40h-2" target="hRdH6rzwgM6ZrKGUw40h-9" edge="1">
          <mxGeometry relative="1" as="geometry" />
        </mxCell>
        <mxCell id="hRdH6rzwgM6ZrKGUw40h-2" value="外部变量定义" style="ellipse;whiteSpace=wrap;html=1;" parent="1" vertex="1">
          <mxGeometry x="314" y="-1080" width="100" height="60" as="geometry" />
        </mxCell>
        <mxCell id="hRdH6rzwgM6ZrKGUw40h-5" value="类型" style="ellipse;whiteSpace=wrap;html=1;" parent="1" vertex="1">
          <mxGeometry x="179" y="-1030" width="90" height="50" as="geometry" />
        </mxCell>
        <mxCell id="hRdH6rzwgM6ZrKGUw40h-16" value="" style="edgeStyle=orthogonalEdgeStyle;rounded=0;orthogonalLoop=1;jettySize=auto;html=1;" parent="1" source="hRdH6rzwgM6ZrKGUw40h-9" target="hRdH6rzwgM6ZrKGUw40h-15" edge="1">
          <mxGeometry relative="1" as="geometry" />
        </mxCell>
        <mxCell id="hRdH6rzwgM6ZrKGUw40h-24" style="edgeStyle=orthogonalEdgeStyle;rounded=0;orthogonalLoop=1;jettySize=auto;html=1;exitX=0;exitY=0.5;exitDx=0;exitDy=0;entryX=0.5;entryY=0;entryDx=0;entryDy=0;" parent="1" source="hRdH6rzwgM6ZrKGUw40h-9" target="hRdH6rzwgM6ZrKGUw40h-13" edge="1">
          <mxGeometry relative="1" as="geometry" />
        </mxCell>
        <mxCell id="hRdH6rzwgM6ZrKGUw40h-9" value="外部变量序列" style="ellipse;whiteSpace=wrap;html=1;" parent="1" vertex="1">
          <mxGeometry x="319" y="-980" width="90" height="55" as="geometry" />
        </mxCell>
        <mxCell id="hRdH6rzwgM6ZrKGUw40h-13" value="i[5]" style="ellipse;whiteSpace=wrap;html=1;" parent="1" vertex="1">
          <mxGeometry x="189" y="-925" width="80" height="55" as="geometry" />
        </mxCell>
        <mxCell id="hRdH6rzwgM6ZrKGUw40h-18" value="" style="edgeStyle=orthogonalEdgeStyle;rounded=0;orthogonalLoop=1;jettySize=auto;html=1;" parent="1" source="hRdH6rzwgM6ZrKGUw40h-15" target="hRdH6rzwgM6ZrKGUw40h-17" edge="1">
          <mxGeometry relative="1" as="geometry" />
        </mxCell>
        <mxCell id="hRdH6rzwgM6ZrKGUw40h-20" value="" style="edgeStyle=orthogonalEdgeStyle;rounded=0;orthogonalLoop=1;jettySize=auto;html=1;" parent="1" source="hRdH6rzwgM6ZrKGUw40h-15" target="hRdH6rzwgM6ZrKGUw40h-19" edge="1">
          <mxGeometry relative="1" as="geometry" />
        </mxCell>
        <mxCell id="hRdH6rzwgM6ZrKGUw40h-15" value="外部变量序列" style="ellipse;whiteSpace=wrap;html=1;" parent="1" vertex="1">
          <mxGeometry x="319" y="-880" width="90" height="55" as="geometry" />
        </mxCell>
        <mxCell id="hRdH6rzwgM6ZrKGUw40h-17" value="j" style="ellipse;whiteSpace=wrap;html=1;" parent="1" vertex="1">
          <mxGeometry x="179" y="-820" width="90" height="55" as="geometry" />
        </mxCell>
        <mxCell id="hRdH6rzwgM6ZrKGUw40h-19" value="。。。" style="ellipse;whiteSpace=wrap;html=1;" parent="1" vertex="1">
          <mxGeometry x="319" y="-770" width="90" height="55" as="geometry" />
        </mxCell>
      </root>
    </mxGraphModel>
  </diagram>
</mxfile>
